{
    "asset" : {
        "generator" : "Khronos glTF Blender I/O v1.2.75",
        "version" : "2.0"
    },
    "scene" : 0,
    "scenes" : [
        {
            "name" : "Scene",
            "nodes" : [
                3,
                4,
                5,
                10,
                11,
                12
            ]
        }
    ],
    "nodes" : [
        {
            "name" : "Node_3"
        },
        {
            "children" : [
                0
            ],
            "name" : "chair_low.obj.cleaner.gles",
            "translation" : [
                -253.68113708496094,
                910.559326171875,
                -417.56439208984375
            ]
        },
        {
            "children" : [
                1
            ],
            "name" : "RootNode (model correction matrix)",
            "scale" : [
                0.001086877891793847,
                0.001086877891793847,
                0.001086877891793847
            ]
        },
        {
            "children" : [
                2
            ],
            "name" : "RootNode (gltf orientation matrix)",
            "rotation" : [
                -0.7071067690849304,
                0,
                0,
                0.7071067690849304
            ]
        },
        {
            "name" : "Light.001",
            "rotation" : [
                0.16907575726509094,
                0.7558803558349609,
                -0.27217137813568115,
                0.570947527885437
            ],
            "translation" : [
                4.076245307922363,
                5.903861999511719,
                -1.0054539442062378
            ]
        },
        {
            "name" : "Camera.001",
            "rotation" : [
                0.483536034822464,
                0.33687159419059753,
                -0.20870360732078552,
                0.7804827094078064
            ],
            "translation" : [
                7.358891487121582,
                4.958309173583984,
                6.925790786743164
            ]
        },
        {
            "mesh" : 0,
            "name" : "Mesh_0.001",
            "scale" : [
                1.7462668418884277,
                1.5478745698928833,
                1.8603862524032593
            ],
            "translation" : [
                253.68109130859375,
                -910.5595703125,
                417.56439208984375
            ]
        },
        {
            "children" : [
                6
            ],
            "name" : "Node_3.001"
        },
        {
            "children" : [
                7
            ],
            "name" : "chair_low.obj.cleaner.gles.001",
            "translation" : [
                -253.68113708496094,
                910.559326171875,
                -417.56439208984375
            ]
        },
        {
            "children" : [
                8
            ],
            "name" : "RootNode (model correction matrix).001",
            "scale" : [
                0.001086877891793847,
                0.001086877891793847,
                0.001086877891793847
            ]
        },
        {
            "children" : [
                9
            ],
            "name" : "RootNode (gltf orientation matrix).001",
            "rotation" : [
                -0.7071067690849304,
                0,
                0,
                0.7071067690849304
            ]
        },
        {
            "name" : "Light",
            "rotation" : [
                0.16907575726509094,
                0.7558803558349609,
                -0.27217137813568115,
                0.570947527885437
            ],
            "translation" : [
                4.076245307922363,
                5.903861999511719,
                -1.0054539442062378
            ]
        },
        {
            "name" : "Camera",
            "rotation" : [
                0.483536034822464,
                0.33687159419059753,
                -0.20870360732078552,
                0.7804827094078064
            ],
            "translation" : [
                7.358891487121582,
                4.958309173583984,
                6.925790786743164
            ]
        }
    ],
    "materials" : [
        {
            "doubleSided" : true,
            "name" : "lambert7SG.001",
            "pbrMetallicRoughness" : {}
        }
    ],
    "meshes" : [
        {
            "name" : "Mesh_0.001",
            "primitives" : [
                {
                    "attributes" : {
                        "POSITION" : 0,
                        "NORMAL" : 1,
                        "TEXCOORD_0" : 2
                    },
                    "indices" : 3,
                    "material" : 0
                }
            ]
        }
    ],
    "accessors" : [
        {
            "bufferView" : 0,
            "componentType" : 5126,
            "count" : 1649,
            "max" : [
                -115.15838623046875,
                712.8838500976562,
                639.4306030273438
            ],
            "min" : [
                -622.5206298828125,
                222.50714111328125,
                -246.07647705078125
            ],
            "type" : "VEC3"
        },
        {
            "bufferView" : 1,
            "componentType" : 5126,
            "count" : 1649,
            "type" : "VEC3"
        },
        {
            "bufferView" : 2,
            "componentType" : 5126,
            "count" : 1649,
            "type" : "VEC2"
        },
        {
            "bufferView" : 3,
            "componentType" : 5123,
            "count" : 6420,
            "type" : "SCALAR"
        }
    ],
    "bufferViews" : [
        {
            "buffer" : 0,
            "byteLength" : 19788,
            "byteOffset" : 0
        },
        {
            "buffer" : 0,
            "byteLength" : 19788,
            "byteOffset" : 19788
        },
        {
            "buffer" : 0,
            "byteLength" : 13192,
            "byteOffset" : 39576
        },
        {
            "buffer" : 0,
            "byteLength" : 12840,
            "byteOffset" : 52768
        }
    ],
    "buffers" : [
        {
            "byteLength" : 65608,
            "uri" : "data:application/octet-stream;base64,"
        }
    ]
}
